<?xml version="1.0" encoding="UTF-8"?>
<svg version="1.1" xmlns="http://www.w3.org/2000/svg" width="502" height="497">
<path d="M0 0 C2.8790633 -0.26063099 5.18071043 -0.44613226 8 0 C10.4765625 2.2109375 10.4765625 2.2109375 12.625 5.375 C13.45730644 6.56023265 14.29209524 7.74372466 15.12890625 8.92578125 C15.57766113 9.57369629 16.02641602 10.22161133 16.48876953 10.88916016 C18.16333227 13.22813745 19.92448623 15.47896544 21.71484375 17.73046875 C22.35147949 18.5311377 22.98811523 19.33180664 23.64404297 20.15673828 C24.90779865 21.74149884 26.1736982 23.32455252 27.44189453 24.90576172 C28.0192334 25.63939941 28.59657227 26.37303711 29.19140625 27.12890625 C29.70904541 27.77931885 30.22668457 28.42973145 30.76000977 29.09985352 C32 31 32 31 32.48803711 33.17944336 C32.65698486 33.78022705 32.82593262 34.38101074 33 35 C33.99 35.33 34.98 35.66 36 36 C37.39712274 37.95597184 38.73779907 39.95436401 40 42 C40.03758423 40.14483765 40.03758423 40.14483765 40.07592773 38.25219727 C40.16982253 33.68063287 40.27008629 29.10922682 40.37231445 24.5378418 C40.41573144 22.55610854 40.45740137 20.57433622 40.49731445 18.5925293 C40.55485383 15.7503683 40.61859445 12.90840517 40.68359375 10.06640625 C40.70030624 9.17474258 40.71701874 8.28307892 40.73423767 7.36439514 C40.88612829 1.11387171 40.88612829 1.11387171 42 0 C44.33297433 -0.04092937 46.66705225 -0.04241723 49 0 C50.29976527 2.59953055 50.14129835 4.51669116 50.16113281 7.42773438 C50.17074036 8.56231079 50.1803479 9.69688721 50.19024658 10.86584473 C50.19449646 12.09605347 50.19874634 13.32626221 50.203125 14.59375 C50.20882507 15.85135132 50.21452515 17.10895264 50.22039795 18.40466309 C50.22985702 21.06782658 50.23674956 23.7308771 50.24023438 26.39404297 C50.24572834 29.81077915 50.26977667 33.22711865 50.29820633 36.64373016 C50.3212737 39.89787366 50.32327792 43.15203615 50.328125 46.40625 C50.3404718 47.63645874 50.3528186 48.86666748 50.36553955 50.13415527 C50.36253845 51.26873169 50.35953735 52.40330811 50.35644531 53.57226562 C50.36191376 55.07545349 50.36191376 55.07545349 50.36749268 56.60900879 C50.24622009 57.39803589 50.12494751 58.18706299 50 59 C47 61 47 61 43.6875 61.125 C38.62162703 59.57947943 36.5345036 56.53982513 34 52 C34 51.34 34 50.68 34 50 C33.34 50 32.68 50 32 50 C31.67 49.01 31.34 48.02 31 47 C29.82822159 45.86170097 28.65451632 44.72528291 27.46875 43.6015625 C25.04494205 40.95858042 23.23341947 37.92080569 21.33203125 34.890625 C20.13011784 32.86772381 20.13011784 32.86772381 18 32 C18 31.01 18 30.02 18 29 C17.34 29 16.68 29 16 29 C13.69 25.7 11.38 22.4 9 19 C8.67 32.53 8.34 46.06 8 60 C5.29120665 61.35439668 2.99066732 61.06501451 0 61 C-1.30248086 58.39503827 -1.12707873 56.48923447 -1.12939453 53.57226562 C-1.13254669 52.43768921 -1.13569885 51.30311279 -1.13894653 50.13415527 C-1.1369223 48.90394653 -1.13489807 47.67373779 -1.1328125 46.40625 C-1.13376923 45.14864868 -1.13472595 43.89104736 -1.13571167 42.59533691 C-1.13639322 39.93217553 -1.13503992 37.26910542 -1.13037109 34.60595703 C-1.1246739 31.18936749 -1.12795387 27.7728565 -1.13394356 24.35626984 C-1.13842226 21.10209372 -1.13528813 17.84792714 -1.1328125 14.59375 C-1.13483673 13.36354126 -1.13686096 12.13333252 -1.13894653 10.86584473 C-1.13579437 9.73126831 -1.13264221 8.59669189 -1.12939453 7.42773438 C-1.12859894 6.42560913 -1.12780334 5.42348389 -1.12698364 4.39099121 C-1 2 -1 2 0 0 Z " fill="#E0E1DC" transform="translate(58,222)"/>
<path d="M0 0 C2.0625 2.625 2.0625 2.625 2 5.3125 C1.0625 7.625 1.0625 7.625 -0.9375 9.625 C-3.92345756 10.01788915 -5.38932359 10.01402842 -7.875 8.25 C-8.555625 7.71375 -9.23625 7.1775 -9.9375 6.625 C-15.62400253 4.22403226 -20.42157 3.78635667 -26.3125 5.75 C-29.20340442 7.41630729 -29.20340442 7.41630729 -29.875 10.625 C-30.10662594 13.67748736 -30.10662594 13.67748736 -28.9375 16.625 C-26.78290985 17.51910304 -26.78290985 17.51910304 -24.125 18.0625 C-5.36757426 22.75185644 -5.36757426 22.75185644 0.0625 27.625 C3.14728251 32.86913026 3.83541391 37.68118315 3.0625 43.625 C1.01898614 49.75554157 -3.41943009 53.29557503 -8.66015625 56.765625 C-15.50422869 59.34829385 -24.83755081 58.68765346 -31.65234375 56.3515625 C-35.48681537 54.4459463 -38.89882662 52.66367338 -41.9375 49.625 C-42.1875 46.125 -42.1875 46.125 -41.9375 42.625 C-39.9375 40.625 -39.9375 40.625 -37.75 40.1875 C-34.21005578 40.73815799 -32.35055734 42.23816035 -29.5859375 44.43359375 C-26.38495578 46.74709949 -23.37748692 46.78636995 -19.5625 46.8125 C-18.62664062 46.82667969 -17.69078125 46.84085937 -16.7265625 46.85546875 C-13.77631846 46.61168108 -11.61385888 45.85612508 -8.9375 44.625 C-8.7828125 42.76875 -8.7828125 42.76875 -8.625 40.875 C-8.53798828 39.83085937 -8.53798828 39.83085937 -8.44921875 38.765625 C-8.79509649 36.42502377 -8.79509649 36.42502377 -10.8984375 34.515625 C-14.76099001 32.1127003 -18.48011736 31.1654212 -22.875 30.125 C-29.62125924 28.52006548 -35.44204416 26.95227446 -39.8125 21.125 C-41.60828259 15.53812083 -42.30685933 9.09661521 -40.10546875 3.515625 C-39.0625 1.875 -39.0625 1.875 -36.9375 -0.375 C-36.2775 -0.375 -35.6175 -0.375 -34.9375 -0.375 C-34.9375 -1.035 -34.9375 -1.695 -34.9375 -2.375 C-22.62848749 -8.25597264 -11.21301603 -9.06584275 0 0 Z " fill="#3C7404" transform="translate(252.9375,226.375)"/>
<path d="M0 0 C3.71599191 -0.20086443 4.77208445 -0.1519437 8 2 C8.26686213 4.69540315 8.34818073 7.15847464 8.29296875 9.8515625 C8.28872391 10.62559418 8.28447906 11.39962585 8.28010559 12.19711304 C8.26328998 14.67342677 8.22563395 17.14893158 8.1875 19.625 C8.17245682 21.30207159 8.15876778 22.97915592 8.14648438 24.65625 C8.11337721 28.77114581 8.06157637 32.88543569 8 37 C9.25797771 35.91185023 10.51412633 34.82158576 11.76953125 33.73046875 C12.46925049 33.12356201 13.16896973 32.51665527 13.88989258 31.89135742 C15.89567029 30.09351409 17.80110368 28.23438055 19.6875 26.3125 C26.83003827 19.13764256 26.83003827 19.13764256 31.1875 18.625 C34 19 34 19 36 21 C36.45703125 23.796875 36.45703125 23.796875 36 27 C33.69921875 29.703125 33.69921875 29.703125 30.6875 32.25 C29.70136719 33.10078125 28.71523438 33.9515625 27.69921875 34.828125 C25 37 25 37 22 39 C21.66551763 42.04877868 21.66551763 42.04877868 23.6875 43.875 C24.450625 44.57625 25.21375 45.2775 26 46 C30.88636364 50.65909091 30.88636364 50.65909091 32 54 C32.99 54.33 33.98 54.66 35 55 C37.00077956 57.94851724 37.63155648 60.48132817 37 64 C34.5 65.8125 34.5 65.8125 32 67 C28.01606028 64.82239854 25.053633 62.29459625 21.875 59.0625 C21.02679688 58.20785156 20.17859375 57.35320312 19.3046875 56.47265625 C14 50.78135593 14 50.78135593 14 48 C11.41116356 49.03806503 11.41116356 49.03806503 9 51 C8.32682685 54.08558753 8.32682685 54.08558753 8.4375 57.5 C8.4306784 63.55758404 8.4306784 63.55758404 6.13671875 65.9140625 C4 67 4 67 1.375 66.875 C-1 66 -1 66 -3 63 C-3.24723816 60.54690552 -3.24723816 60.54690552 -3.24291992 57.59814453 C-3.24599655 56.49334747 -3.24907318 55.38855042 -3.25224304 54.25027466 C-3.24505753 53.05651215 -3.23787201 51.86274963 -3.23046875 50.6328125 C-3.23001053 49.40593719 -3.22955231 48.17906189 -3.2290802 46.91500854 C-3.22605662 44.31751541 -3.2181672 41.7200241 -3.20581055 39.12255859 C-3.18760556 35.14804651 -3.18530053 31.17376809 -3.18554688 27.19921875 C-3.18062963 24.67708132 -3.17480041 22.15494547 -3.16796875 19.6328125 C-3.16685593 18.44309845 -3.1657431 17.2533844 -3.16459656 16.02761841 C-3.15821671 14.91651703 -3.15183685 13.80541565 -3.14526367 12.66064453 C-3.14145187 11.68596222 -3.13764008 10.71127991 -3.13371277 9.70706177 C-3.00214766 7.04348018 -2.59385412 4.59621291 -2 2 C-1.34 2 -0.68 2 0 2 C0 1.34 0 0.68 0 0 Z " fill="#3D7803" transform="translate(394,217)"/>
<path d="M0 0 C3.36500565 1.46028547 5.56430417 3.28722766 8 6 C8.78375 6.825 9.5675 7.65 10.375 8.5 C13.87102337 13.87849749 14.52219787 18.7336256 14 25 C10.36743982 27.42170679 8.47421305 27.3044503 4.14453125 27.4140625 C3.48289474 27.43342865 2.82125824 27.4527948 2.13957214 27.4727478 C0.03067836 27.53242687 -2.07827037 27.57888087 -4.1875 27.625 C-5.61916415 27.66319066 -7.05080559 27.70224303 -8.48242188 27.7421875 C-11.98807312 27.83811773 -15.49389445 27.92219197 -19 28 C-18.06846689 32.78832514 -18.06846689 32.78832514 -15.17578125 36.38671875 C-7.85377134 38.45055278 -2.94371774 38.27533856 4 35 C7.875 34.75 7.875 34.75 11 35 C12 36 12 36 12.5 38.25 C11.91534061 41.46562665 11.40887687 41.80662664 8.875 43.6875 C2.17778288 47.92996025 -4.16092423 48.88067287 -12 48 C-18.57312843 46.12630392 -23.46647521 42.97530041 -27.1875 37.13671875 C-30.59230061 30.66996203 -31.00026501 24.17581421 -30 17 C-25.29240005 2.23616528 -14.36172341 -1.62399036 0 0 Z M-17 12 C-17.99 13.98 -18.98 15.96 -20 18 C-12.08 18 -4.16 18 4 18 C2.83649206 13.34596823 0.97919591 11.41434359 -3 9 C-8.54769848 7.28525683 -12.78312847 8.00232228 -17 12 Z " fill="#E2E2DE" transform="translate(148,236)"/>
<path d="M0 0 C3.40596647 0.47856629 4.27783915 1.61224532 6.42578125 4.2421875 C7.03035156 4.96148437 7.63492188 5.68078125 8.2578125 6.421875 C9.61328125 8.3671875 9.61328125 8.3671875 9.61328125 10.3671875 C10.27328125 10.3671875 10.93328125 10.3671875 11.61328125 10.3671875 C11.94328125 11.6871875 12.27328125 13.0071875 12.61328125 14.3671875 C13.93328125 14.3671875 15.25328125 14.3671875 16.61328125 14.3671875 C16.86078125 13.7896875 17.10828125 13.2121875 17.36328125 12.6171875 C18.78616968 10.05598833 20.54658605 8.4338827 22.61328125 6.3671875 C23.26296875 5.036875 23.26296875 5.036875 23.92578125 3.6796875 C25.61328125 1.3671875 25.61328125 1.3671875 29.30078125 0.5546875 C30.39390625 0.4928125 31.48703125 0.4309375 32.61328125 0.3671875 C34.61328125 3.3671875 34.61328125 3.3671875 34.36328125 5.8671875 C33.61328125 8.3671875 33.61328125 8.3671875 31.61328125 11.3671875 C30.95328125 11.3671875 30.29328125 11.3671875 29.61328125 11.3671875 C29.28328125 12.6871875 28.95328125 14.0071875 28.61328125 15.3671875 C27.95328125 15.3671875 27.29328125 15.3671875 26.61328125 15.3671875 C26.61328125 16.3571875 26.61328125 17.3471875 26.61328125 18.3671875 C24.11328125 21.0546875 24.11328125 21.0546875 21.61328125 23.3671875 C22.39458196 25.86271234 22.39458196 25.86271234 23.61328125 28.3671875 C24.60328125 28.6971875 25.59328125 29.0271875 26.61328125 29.3671875 C28.65625 31.6953125 28.65625 31.6953125 30.80078125 34.6171875 C31.51621094 35.57109375 32.23164063 36.525 32.96875 37.5078125 C34.70190837 40.52128501 35.15876828 41.96522539 34.61328125 45.3671875 C33.95328125 46.0271875 33.29328125 46.6871875 32.61328125 47.3671875 C28.28155522 47.28697035 26.28338997 47.03729622 23.17578125 43.9296875 C21.61328125 41.3671875 21.61328125 41.3671875 21.61328125 39.3671875 C20.95328125 39.3671875 20.29328125 39.3671875 19.61328125 39.3671875 C18.2605001 37.38029019 16.9275982 35.37973532 15.61328125 33.3671875 C14.95328125 33.0371875 14.29328125 32.7071875 13.61328125 32.3671875 C13.34902344 33.09421875 13.08476562 33.82125 12.8125 34.5703125 C10.86459466 39.11330997 8.1511283 42.91458977 4.61328125 46.3671875 C-1.04651256 48.03729059 -1.04651256 48.03729059 -4.38671875 46.3671875 C-4.74530314 42.51240532 -4.66220055 40.78959292 -2.51171875 37.4921875 C-1.81046875 36.7909375 -1.10921875 36.0896875 -0.38671875 35.3671875 C0.27328125 35.3671875 0.93328125 35.3671875 1.61328125 35.3671875 C1.94328125 34.0471875 2.27328125 32.7271875 2.61328125 31.3671875 C3.27328125 31.3671875 3.93328125 31.3671875 4.61328125 31.3671875 C5.31722737 30.05315474 5.97673783 28.7151618 6.61328125 27.3671875 C6.89816406 26.78453125 7.18304688 26.201875 7.4765625 25.6015625 C7.66448312 22.53040264 6.23551859 21.19458073 4.29296875 18.9453125 C3.82117188 18.42453125 3.349375 17.90375 2.86328125 17.3671875 C1.95109343 16.32615959 1.03961897 15.28450611 0.12890625 14.2421875 C-1.11632812 12.8190625 -1.11632812 12.8190625 -2.38671875 11.3671875 C-5.4126964 7.73087465 -5.4126964 7.73087465 -5.19921875 4.7421875 C-4.12820058 1.61151902 -3.323964 0.51137908 0 0 Z " fill="#DCDDD8" transform="translate(171.38671875,235.6328125)"/>
<path d="M0 0 C2.15502531 3.23253796 2.46856135 4.25150923 2 8 C0.8125 9.875 0.8125 9.875 -1 11 C-4.20703786 10.8266466 -6.04970331 9.97017801 -8.8125 8.3125 C-12.59636334 6.75443862 -14.30219403 7.01051113 -18.10546875 8.203125 C-21.89137572 9.79554772 -24.28882969 11.74698564 -26.3125 15.3125 C-27.91476717 21.57590802 -27.14277038 26.36468759 -24 32 C-20.09257063 35.7853222 -15.57341128 35.32167826 -10.42578125 35.30078125 C-7.82024831 35.23006339 -7.82024831 35.23006339 -6 33 C-2.375 32.875 -2.375 32.875 1 33 C2.125 35.25 2.125 35.25 3 38 C1.83329405 41.30355327 0.49161061 42.66644502 -2.625 44.1875 C-10.24407778 47.65445446 -17.11211707 47.46165474 -25 45 C-30.78714563 41.89208846 -35.00410888 37.52348814 -37.45703125 31.34375 C-39.28905514 23.43573319 -39.26893618 14.141529 -35.3984375 6.8671875 C-27.24398647 -4.02059908 -11.81001255 -6.30732538 0 0 Z " fill="#3D7703" transform="translate(381,238)"/>
<path d="M0 0 C0.9075 0.2475 1.815 0.495 2.75 0.75 C3.92571451 4.42410785 3.82366746 7.91929183 3.75 11.75 C5.35875 11.4096875 5.35875 11.4096875 7 11.0625 C10.75 10.75 10.75 10.75 13.1875 12.1875 C13.703125 12.703125 14.21875 13.21875 14.75 13.75 C13.875 19.625 13.875 19.625 12.75 20.75 C11.23530552 20.98192865 9.71245438 21.16215238 8.1875 21.3125 C6.94806641 21.43818359 6.94806641 21.43818359 5.68359375 21.56640625 C5.04550781 21.62699219 4.40742188 21.68757813 3.75 21.75 C3.72107143 25.70831809 3.70322573 29.66660917 3.6875 33.625 C3.67912109 34.75292969 3.67074219 35.88085938 3.66210938 37.04296875 C3.65888672 38.11933594 3.65566406 39.19570313 3.65234375 40.3046875 C3.64710693 41.29968262 3.64187012 42.29467773 3.63647461 43.31982422 C3.5860585 45.75960773 3.5860585 45.75960773 4.75 47.75 C6.420625 47.688125 6.420625 47.688125 8.125 47.625 C11.75 47.75 11.75 47.75 13.75 49.75 C13.375 53.375 13.375 53.375 12.75 56.75 C8.39836386 58.99175195 5.4872085 58.76511611 0.75 57.75 C-0.61125 57.4715625 -0.61125 57.4715625 -2 57.1875 C-5.52004093 54.93858496 -6.33866565 51.65292055 -7.25 47.75 C-7.5981569 43.2414037 -7.53432438 38.76847105 -7.4375 34.25 C-7.42396484 33.04601562 -7.41042969 31.84203125 -7.39648438 30.6015625 C-7.36135352 27.65057027 -7.31215996 24.70052588 -7.25 21.75 C-9.56 21.42 -11.87 21.09 -14.25 20.75 C-14.91 18.77 -15.57 16.79 -16.25 14.75 C-12.92692308 10.81153846 -12.92692308 10.81153846 -9.5 10.5 C-8.7575 10.5825 -8.015 10.665 -7.25 10.75 C-7.3325 9.6775 -7.415 8.605 -7.5 7.5 C-7.25 3.75 -7.25 3.75 -5.625 1.25 C-3.25 -0.25 -3.25 -0.25 0 0 Z " fill="#3C7304" transform="translate(275.25,225.25)"/>
<path d="M0 0 C2.64254905 0.96312685 4.98965575 2.21787145 7.4453125 3.58984375 C8.40695312 4.12480469 9.36859375 4.65976563 10.359375 5.2109375 C13.62415737 7.0548498 16.88623025 8.90154067 20.1328125 10.77734375 C19.76028182 13.19211814 19.53393639 14.43988101 17.62988281 16.04174805 C16.99663086 16.39148682 16.36337891 16.74122559 15.7109375 17.1015625 C15.01484375 17.49021484 14.31875 17.87886719 13.6015625 18.27929688 C12.869375 18.67052734 12.1371875 19.06175781 11.3828125 19.46484375 C10.66609375 19.86767578 9.949375 20.27050781 9.2109375 20.68554688 C1.76453564 24.77148613 1.76453564 24.77148613 -1.8671875 24.77734375 C-4.3900777 23.67357929 -6.53833408 22.57055577 -8.8671875 21.15234375 C-9.47046875 20.80816406 -10.07375 20.46398437 -10.6953125 20.109375 C-14.67529371 17.76464694 -17.72942273 15.16470345 -20.8671875 11.77734375 C-18.66390225 9.37185828 -16.48950972 7.87141417 -13.6171875 6.33984375 C-10.69694568 4.77763309 -7.8634096 3.15552018 -5.0546875 1.40234375 C-1.8671875 -0.22265625 -1.8671875 -0.22265625 0 0 Z " fill="#E8E8E3" transform="translate(315.8671875,234.22265625)"/>
<path d="M0 0 C0 8.25 0 16.5 0 25 C-8 29 -8 29 -10 29 C-10 29.66 -10 30.32 -10 31 C-11.24460783 31.67667998 -12.49596896 32.34094719 -13.75 33 C-14.44609375 33.37125 -15.1421875 33.7425 -15.859375 34.125 C-18 35 -18 35 -22 35 C-23.10899848 27.12421504 -24.24771038 18.74342797 -22 11 C-17.08772404 4.60389542 -8.01874576 0 0 0 Z " fill="#F1F1EE" transform="translate(339,250)"/>
<path d="M0 0 C3.89494433 0.77898887 5.73774032 1.18878096 8.953125 3.03125 C9.654375 3.42957031 10.355625 3.82789063 11.078125 4.23828125 C11.79484375 4.65464844 12.5115625 5.07101563 13.25 5.5 C13.9821875 5.91636719 14.714375 6.33273437 15.46875 6.76171875 C20.82893669 9.82893669 20.82893669 9.82893669 22 11 C22.08726223 12.78071246 22.10699041 14.5648314 22.09765625 16.34765625 C22.09443359 17.42724609 22.09121094 18.50683594 22.08789062 19.61914062 C22.07951172 20.75544922 22.07113281 21.89175781 22.0625 23.0625 C22.05798828 24.20267578 22.05347656 25.34285156 22.04882812 26.51757812 C22.03699747 29.34510351 22.0205141 32.1725264 22 35 C16.34934924 34.50980159 12.3994006 32.25533251 7.625 29.4375 C5.10875 27.973125 2.5925 26.50875 0 25 C0 16.75 0 8.5 0 0 Z " fill="#F3F4F0" transform="translate(293,250)"/>
<path d="M0 0 C3.71599191 -0.20086443 4.77208445 -0.1519437 8 2 C8.26686213 4.69540315 8.34818073 7.15847464 8.29296875 9.8515625 C8.28872391 10.62559418 8.28447906 11.39962585 8.28010559 12.19711304 C8.26328998 14.67342677 8.22563395 17.14893158 8.1875 19.625 C8.17245682 21.30207159 8.15876778 22.97915592 8.14648438 24.65625 C8.11337721 28.77114581 8.06157637 32.88543569 8 37 C8.61875 36.34 9.2375 35.68 9.875 35 C12 33 12 33 14 33 C14 33.66 14 34.32 14 35 C13.34 35 12.68 35 12 35 C12 36.32 12 37.64 12 39 C10.515 39.495 10.515 39.495 9 40 C8.34 39.67 7.68 39.34 7 39 C6.505 21.675 6.505 21.675 6 4 C4.35 4 2.7 4 1 4 C-0.74300973 5.74300973 -0.17006086 8.15695189 -0.20532227 10.52954102 C-0.22526749 11.71068985 -0.24521271 12.89183868 -0.26576233 14.10877991 C-0.28247482 15.3941716 -0.29918732 16.67956329 -0.31640625 18.00390625 C-0.33718735 19.31205795 -0.35796844 20.62020966 -0.37937927 21.96800232 C-0.434663 25.45155447 -0.48404431 28.9351666 -0.53222656 32.41882324 C-0.58239574 35.9713273 -0.63810567 39.5237439 -0.69335938 43.07617188 C-0.80101791 50.05070546 -0.90244567 57.02531798 -1 64 C1.31 64 3.62 64 6 64 C6 60.37 6 56.74 6 53 C6.66 53.33 7.32 53.66 8 54 C8.10824843 55.6026782 8.18570645 57.20745748 8.25 58.8125 C8.31960938 60.15248047 8.31960938 60.15248047 8.390625 61.51953125 C8 64 8 64 6.1484375 65.83203125 C4 67 4 67 1.375 66.875 C-1 66 -1 66 -3 63 C-3.24723816 60.54690552 -3.24723816 60.54690552 -3.24291992 57.59814453 C-3.24599655 56.49334747 -3.24907318 55.38855042 -3.25224304 54.25027466 C-3.24505753 53.05651215 -3.23787201 51.86274963 -3.23046875 50.6328125 C-3.23001053 49.40593719 -3.22955231 48.17906189 -3.2290802 46.91500854 C-3.22605662 44.31751541 -3.2181672 41.7200241 -3.20581055 39.12255859 C-3.18760556 35.14804651 -3.18530053 31.17376809 -3.18554688 27.19921875 C-3.18062963 24.67708132 -3.17480041 22.15494547 -3.16796875 19.6328125 C-3.16685593 18.44309845 -3.1657431 17.2533844 -3.16459656 16.02761841 C-3.15821671 14.91651703 -3.15183685 13.80541565 -3.14526367 12.66064453 C-3.14145187 11.68596222 -3.13764008 10.71127991 -3.13371277 9.70706177 C-3.00214766 7.04348018 -2.59385412 4.59621291 -2 2 C-1.34 2 -0.68 2 0 2 C0 1.34 0 0.68 0 0 Z " fill="#2E5807" transform="translate(394,217)"/>
<path d="M0 0 C1.670625 0.061875 1.670625 0.061875 3.375 0.125 C4.5 2.375 4.5 2.375 5.375 5.125 C4.20829405 8.42855327 2.86661061 9.79144502 -0.25 11.3125 C-8.13018714 14.89826861 -14.45276752 14.15131174 -22.625 12.125 C-22.625 11.795 -22.625 11.465 -22.625 11.125 C-21.19607422 11.22941406 -21.19607422 11.22941406 -19.73828125 11.3359375 C-12.88674663 11.92236094 -12.88674663 11.92236094 -6.58203125 9.859375 C-4.81159185 7.72031039 -3.625 5.95658856 -3.625 3.125 C-4.285 2.795 -4.945 2.465 -5.625 2.125 C-3.625 0.125 -3.625 0.125 0 0 Z " fill="#3A6D06" transform="translate(378.625,270.875)"/>
<path d="M0 0 C0.99 0.33 1.98 0.66 3 1 C2.56071941 6.49100742 1.24025548 9.5814698 -2 14 C-2.69429379 15.3191582 -3.37530495 16.64649406 -4 18 C-6.33294775 18.04241723 -8.66702567 18.04092937 -11 18 C-11.33 17.67 -11.66 17.34 -12 17 C-11.71269945 14.66055264 -11.38063221 12.3260857 -11 10 C-7.535 9.505 -7.535 9.505 -4 9 C-3.896875 7.88625 -3.79375 6.7725 -3.6875 5.625 C-3.460625 4.42875 -3.23375 3.2325 -3 2 C-2.01 1.34 -1.02 0.68 0 0 Z " fill="#3F7A04" transform="translate(273,227)"/>
<path d="M0 0 C3.5 -0.375 3.5 -0.375 7 0 C9.44897847 3.67346771 9.31537716 5.66356399 9 10 C7 12 7 12 4.0625 12.3125 C1 12 1 12 -0.875 10.875 C-2.51151479 8.14747535 -2.32502803 6.12026907 -2 3 C-1.34 2.01 -0.68 1.02 0 0 Z " fill="#D3D4CE" transform="translate(440,271)"/>
<path d="M0 0 C0 0.66 0 1.32 0 2 C-1.05058594 1.83242187 -2.10117187 1.66484375 -3.18359375 1.4921875 C-15.32135541 -0.36786788 -15.32135541 -0.36786788 -27 3 C-28.13350534 5.01669827 -28.13350534 5.01669827 -29 7 C-30.32 7 -31.64 7 -33 7 C-33.99 9.97 -34.98 12.94 -36 16 C-36.66 16 -37.32 16 -38 16 C-35.97440455 8.95645217 -34.03613368 3.67447343 -27.5 -0.25 C-18.49256768 -4.75371616 -9.12527275 -3.78529833 0 0 Z " fill="#3A6109" transform="translate(381,238)"/>
<path d="M0 0 C0.78375 0.04125 1.5675 0.0825 2.375 0.125 C3.125 1.875 3.125 1.875 3.375 4.125 C1.4375 6.375 1.4375 6.375 -0.625 8.125 C0.19701984 10.31617773 0.19701984 10.31617773 2.44140625 10.9765625 C3.26511719 11.23179687 4.08882812 11.48703125 4.9375 11.75 C5.76378906 12.01039063 6.59007812 12.27078125 7.44140625 12.5390625 C8.39853516 12.82910156 8.39853516 12.82910156 9.375 13.125 C9.375 13.785 9.375 14.445 9.375 15.125 C4.2818558 14.81317484 0.77833923 13.80024183 -3.3046875 10.66015625 C-4.625 9.125 -4.625 9.125 -5.1875 5.4375 C-4.51909022 1.50130905 -4.11826367 0.19610779 0 0 Z " fill="#427908" transform="translate(215.625,266.875)"/>
<path d="M0 0 C1.98 0.99 3.96 1.98 6 3 C6 10.92 6 18.84 6 27 C-0.75 25.875 -0.75 25.875 -4 23 C-1.23723823 23.52268466 1.3260876 24.10869587 4 25 C4 18.07 4 11.14 4 4 C3.01 4.33 2.02 4.66 1 5 C0.67 3.35 0.34 1.7 0 0 Z " fill="#A9AB9E" transform="translate(309,258)"/>
<path d="M0 0 C0.99 0.33 1.98 0.66 3 1 C4.125 7.75 4.125 7.75 3 10 C1.02 10 -0.96 10 -3 10 C-5.09230769 5.56923077 -5.09230769 5.56923077 -4.625 2.6875 C-4.41875 2.130625 -4.2125 1.57375 -4 1 C-3.01 1 -2.02 1 -1 1 C-0.67 0.67 -0.34 0.34 0 0 Z " fill="#3E7902" transform="translate(425,272)"/>
<path d="M0 0 C0 8.25 0 16.5 0 25 C-0.66 24.67 -1.32 24.34 -2 24 C-2.33 17.07 -2.66 10.14 -3 3 C-3.99 3.66 -4.98 4.32 -6 5 C-6.99 4.34 -7.98 3.68 -9 3 C-5.55930376 0.70620251 -4.27709699 0 0 0 Z " fill="#A1A396" transform="translate(339,250)"/>
<path d="M0 0 C1.36125 0.37125 1.36125 0.37125 2.75 0.75 C3.85844919 4.07534757 3.59454356 6.37182575 2.75 9.75 C2.42 9.75 2.09 9.75 1.75 9.75 C1.75 7.11 1.75 4.47 1.75 1.75 C-0.23 2.41 -2.21 3.07 -4.25 3.75 C-4.394375 4.884375 -4.53875 6.01875 -4.6875 7.1875 C-5.25 10.75 -5.25 10.75 -6.25 11.75 C-8.24958364 11.79080783 -10.25045254 11.79254356 -12.25 11.75 C-12.25 11.42 -12.25 11.09 -12.25 10.75 C-10.6 10.75 -8.95 10.75 -7.25 10.75 C-7.37375 9.14125 -7.37375 9.14125 -7.5 7.5 C-7.25 3.75 -7.25 3.75 -5.625 1.25 C-3.25 -0.25 -3.25 -0.25 0 0 Z " fill="#355C0C" transform="translate(275.25,225.25)"/>
<path d="M0 0 C3.4375 0.75 3.4375 0.75 5.4375 2.75 C4.86931818 8.31818182 4.86931818 8.31818182 3.4375 9.75 C1.75566052 9.98287008 0.0662584 10.16264166 -1.625 10.3125 C-2.54410156 10.39628906 -3.46320313 10.48007813 -4.41015625 10.56640625 C-5.12042969 10.62699219 -5.83070313 10.68757812 -6.5625 10.75 C-6.5625 10.09 -6.5625 9.43 -6.5625 8.75 C-3.5925 8.75 -0.6225 8.75 2.4375 8.75 C2.251875 7.96625 2.06625 7.1825 1.875 6.375 C1.4375 3.75 1.4375 3.75 2.4375 1.75 C-0.5325 1.75 -3.5025 1.75 -6.5625 1.75 C-3.5625 -0.25 -3.5625 -0.25 0 0 Z " fill="#36580B" transform="translate(284.5625,236.25)"/>
<path d="M0 0 C1.485 0.99 1.485 0.99 3 2 C3 2.66 3 3.32 3 4 C3.99 4.33 4.98 4.66 6 5 C8.00077956 7.94851724 8.63155648 10.48132817 8 14 C5.5 15.8125 5.5 15.8125 3 17 C2.01 16.34 1.02 15.68 0 15 C0.99 14.67 1.98 14.34 3 14 C3.66 14.33 4.32 14.66 5 15 C5 12.03 5 9.06 5 6 C3.35 5.67 1.7 5.34 0 5 C0 3.35 0 1.7 0 0 Z " fill="#395D0E" transform="translate(423,267)"/>
<path d="M0 0 C2.31 0 4.62 0 7 0 C8.10228696 4.40914783 8.07654536 8.48382401 8 13 C7.01 13.33 6.02 13.66 5 14 C5.1546875 12.14375 5.1546875 12.14375 5.3125 10.25 C5.39429821 8.05846965 5.39429821 8.05846965 5 6 C2.62157423 3.59593616 2.62157423 3.59593616 0 2 C0 1.34 0 0.68 0 0 Z " fill="#39660B" transform="translate(239,257)"/>
<path d="M0 0 C0.66 0.33 1.32 0.66 2 1 C2.10824843 2.6026782 2.18570645 4.20745748 2.25 5.8125 C2.29640625 6.70582031 2.3428125 7.59914063 2.390625 8.51953125 C2 11 2 11 0.15625 12.84375 C-2 14 -2 14 -4.75 13.6875 C-5.4925 13.460625 -6.235 13.23375 -7 13 C-7 12.34 -7 11.68 -7 11 C-4.69 11 -2.38 11 0 11 C0 7.37 0 3.74 0 0 Z " fill="#385A0D" transform="translate(400,270)"/>
<path d="M0 0 C4.35739867 1.0687959 6.87564709 1.87564709 10 5 C13.10839021 5.7269226 13.10839021 5.7269226 16 6 C16 6.99 16 7.98 16 9 C10.10844395 8.00498165 5.65576858 6.84100908 1 3 C0.67 2.01 0.34 1.02 0 0 Z " fill="#3B640B" transform="translate(214,247)"/>
<path d="M0 0 C0.33 0 0.66 0 1 0 C1.09796875 0.85722656 1.1959375 1.71445313 1.296875 2.59765625 C2.18407427 9.38167135 3.20466232 14.30699349 7 20 C7 20.66 7 21.32 7 22 C6.01 22 5.02 22 4 22 C-0.22550835 14.69967977 -0.46251848 8.31248491 0 0 Z " fill="#496D17" transform="translate(343,254)"/>
<path d="M0 0 C3.625 -0.1875 3.625 -0.1875 7 0 C9.125 4.625 9.125 4.625 8 8 C7.01 8 6.02 8 5 8 C5 6.35 5 4.7 5 3 C2.69 3 0.38 3 -2 3 C-1.34 2.01 -0.68 1.02 0 0 Z " fill="#395E0E" transform="translate(375,271)"/>
<path d="M0 0 C1.5625 1.1875 1.5625 1.1875 3 3 C2.75546876 6.34192692 2.39456443 7.60543557 0 10 C-2.375 10.375 -2.375 10.375 -5 10 C-7.3125 8 -7.3125 8 -9 6 C-5.7 6.33 -2.4 6.66 1 7 C0.67 4.69 0.34 2.38 0 0 Z " fill="#395B0B" transform="translate(252,226)"/>
<path d="M0 0 C1.09570312 0.00902344 2.19140625 0.01804688 3.3203125 0.02734375 C4.16335938 0.03894531 5.00640625 0.05054688 5.875 0.0625 C5.875 0.7225 5.875 1.3825 5.875 2.0625 C4.87919922 2.13597656 4.87919922 2.13597656 3.86328125 2.2109375 C-2.8362236 2.77375812 -2.8362236 2.77375812 -9.125 5.0625 C-8.75 3.125 -8.75 3.125 -8.125 1.0625 C-5.36047967 -0.31976016 -3.0788637 -0.03275387 0 0 Z " fill="#346509" transform="translate(367.125,242.9375)"/>
<path d="M0 0 C0.66 0 1.32 0 2 0 C2.0825 0.5775 2.165 1.155 2.25 1.75 C3.2026631 4.60798931 4.86053074 5.92954588 7 8 C7 8.66 7 9.32 7 10 C6.34 10 5.68 10 5 10 C5 9.34 5 8.68 5 8 C3.35 7.67 1.7 7.34 0 7 C0 4.69 0 2.38 0 0 Z " fill="#345D08" transform="translate(413,255)"/>
<path d="M0 0 C2.97722547 0.70333538 5.85256543 1.58248537 8.75 2.5625 C9.94882813 2.96662109 9.94882813 2.96662109 11.171875 3.37890625 C11.77515625 3.58386719 12.3784375 3.78882813 13 4 C13 4.66 13 5.32 13 6 C7.57689095 5.56615128 4.29855944 4.35497322 0 1 C0 0.67 0 0.34 0 0 Z " fill="#3A630E" transform="translate(212,276)"/>
<path d="M0 0 C0.33 0 0.66 0 1 0 C1.22732116 2.80362763 1.34081872 4.46186517 -0.1875 6.875 C-2 8 -2 8 -4.625 7.8125 C-7 7 -7 7 -8 5 C-5.525 5.495 -5.525 5.495 -3 6 C-3 5.01 -3 4.02 -3 3 C-2.34 3 -1.68 3 -1 3 C-0.67 2.01 -0.34 1.02 0 0 Z " fill="#315B0A" transform="translate(382,241)"/>
<path d="M0 0 C2.875 -0.125 2.875 -0.125 6 0 C8 2 8 2 8.125 5.125 C8.08375 6.07375 8.0425 7.0225 8 8 C6.5 6.75 6.5 6.75 5 5 C5 3.68 5 2.36 5 1 C3.02 1.33 1.04 1.66 -1 2 C-0.67 1.34 -0.34 0.68 0 0 Z " fill="#35550D" transform="translate(422,236)"/>
<path d="M0 0 C1.485 0.99 1.485 0.99 3 2 C2.67 4.31 2.34 6.62 2 9 C1.01 9 0.02 9 -1 9 C-1.08886184 5.80097361 -0.91058531 3.07322544 0 0 Z " fill="#345A0C" transform="translate(286,273)"/>
<path d="M0 0 C1.2065625 0.0309375 1.2065625 0.0309375 2.4375 0.0625 C-2.3125 4.9375 -2.3125 4.9375 -4.5625 6.0625 C-3.48963568 0.08511307 -3.48963568 0.08511307 0 0 Z " fill="#36570A" transform="translate(426.5625,243.9375)"/>
<path d="M0 0 C0.78375 0.04125 1.5675 0.0825 2.375 0.125 C1.055 0.455 -0.265 0.785 -1.625 1.125 C-1.74875 2.259375 -1.8725 3.39375 -2 4.5625 C-2.20625 5.738125 -2.4125 6.91375 -2.625 8.125 C-3.615 8.62 -3.615 8.62 -4.625 9.125 C-4.75 5.75 -4.75 5.75 -4.625 2.125 C-2.625 0.125 -2.625 0.125 0 0 Z " fill="#3A5911" transform="translate(215.625,266.875)"/>
<path d="M0 0 C4.55737263 0.43820891 7.57653445 0.85041169 11 4 C8.03 3.67 5.06 3.34 2 3 C2 2.34 2 1.68 2 1 C1.34 0.67 0.68 0.34 0 0 Z " fill="#395E09" transform="translate(238,248)"/>
<path d="M0 0 C1.485 0.99 1.485 0.99 3 2 C3 2.66 3 3.32 3 4 C3.99 4.33 4.98 4.66 6 5 C2.25 6.125 2.25 6.125 0 5 C0 3.35 0 1.7 0 0 Z " fill="#2E5908" transform="translate(423,267)"/>
<path d="M0 0 C0.66 0 1.32 0 2 0 C0.70700306 2.88437779 -0.65941363 4.87219421 -3 7 C-3.66 6.67 -4.32 6.34 -5 6 C-3.38405168 3.95880212 -1.7143618 1.95927063 0 0 Z " fill="#A4A59B" transform="translate(127,239)"/>
<path d="M0 0 C1.9375 0.6875 1.9375 0.6875 4 2 C4.75 4.625 4.75 4.625 5 7 C3.0625 6.3125 3.0625 6.3125 1 5 C0.25 2.375 0.25 2.375 0 0 Z " fill="#3B620C" transform="translate(249,252)"/>
<path d="M0 0 C1.32 0.66 2.64 1.32 4 2 C2.68 2.99 1.36 3.98 0 5 C-0.99 4.34 -1.98 3.68 -3 3 C-2.01 2.67 -1.02 2.34 0 2 C0 1.34 0 0.68 0 0 Z " fill="#337007" transform="translate(218,224)"/>
</svg>
